<?xml version="1.0" encoding="UTF-8" standalone="no"?>
<!-- Created with Inkscape (http://www.inkscape.org/) -->

<svg
   width="200"
   height="200"
   viewBox="0 0 200 200"
   version="1.1"
   id="svg5"
   xmlns="http://www.w3.org/2000/svg"
   xmlns:svg="http://www.w3.org/2000/svg">
  <defs
     id="defs2" />
  <g
     id="layer1"
     transform="translate(-79.999878,-219.99999)">
    <g
       id="g1815">
      <rect
         style="fill:#f7a500;fill-opacity:1;stroke:none;stroke-width:2.16918"
         id="rect954"
         width="200"
         height="200.00021"
         x="79.999878"
         y="219.99998" />
      <path
         id="path493"
         style="color:#000000;fill:#674500;stroke-width:0.587806"
         d="m 87.078003,350.5997 -6.724609,25.09765 h -0.353516 v 2.93946 H 82.6073 l 6.548828,-24.43555 2.521484,0.67578 0.25586,1.84375 -5.621094,20.97852 4.927734,4.07226 v 9.39258 l -8.126953,7.50195 h -3.113281 v 2.93946 h 4.259766 l 9.919921,-9.15625 v -12.0625 l -4.539062,-3.75196 5.287109,-19.73046 -0.605468,-4.36133 z" />
      <path
         id="path503"
         style="color:#000000;fill:#674500;stroke-width:0.587807"
         d="m 217.93782,219.99999 2.46486,9.19336 -4.54102,3.75195 v 12.06446 l 0.47657,0.43554 c 3.01266,2.76355 6.01371,5.54545 9.01756,8.32617 l 0.42383,0.39063 h 8.43945 l 9.91993,-9.1543 v -12.0625 l -4.53906,-3.75195 2.46288,-9.19336 h -3.04296 l -2.74805,10.25586 4.92773,4.07226 v 9.39258 l -8.12695,7.50196 h -6.14258 c -2.70396,-2.50322 -5.41169,-5.00691 -8.1289,-7.50196 v -9.39258 l 4.92968,-4.07226 -2.74804,-10.25586 z m 6.49611,0 3,11.19336 h 5.13281 l 3,-11.19336 h -3.04101 l -2.21291,8.25586 h -0.625 l -2.21288,-8.25586 z" />
      <path
         id="path528"
         style="color:#000000;fill:#674500;stroke-width:0.587807;-inkscape-stroke:none"
         d="m 79.999878,307.15439 v 2.9375 h 2.554687 l 2.304688,4.98045 5.261719,-1.28515 4.298828,4.51759 0.507812,6.02733 2.025391,5.05859 -0.542969,2.48047 H 79.999878 v 2.93947 h 18.642578 l 0.371094,-1.08399 1.00391,-4.58984 -2.199223,-5.48828 -0.554687,-6.6211 -6.1875,-6.49804 -4.566406,1.11523 -2.076172,-4.49023 z" />
      <path
         id="path544"
         style="color:#000000;fill:#674500;stroke-width:0.587807"
         d="m 81.058472,238.39462 -0.666016,0.0156 -0.392578,0.01 v 28.53906 l 2.832031,0.41211 5.777344,-19.38867 0.996094,-0.5293 2.21289,0.8711 0.320313,1.16015 -6.904297,24.23047 2.970703,2.82422 7.830078,-4.78711 0.480469,0.082 0.822266,1.56446 -0.269532,0.53906 -8.353515,6.53321 -8.644532,7.98048 h -0.07031 v 2.93943 h 1.216797 l 9.404297,-8.67773 8.779297,-6.86914 1.240229,-2.48046 -2.199214,-4.17579 -2.99414,-0.52148 -6.851563,4.19142 -0.04883,-0.0469 6.646484,-23.31836 -0.9375,-3.36716 -4.830078,-1.90039 -3.279297,1.73635 -3.251953,10.91404 v -16.4787 z" />
      <path
         id="path479"
         style="color:#000000;fill:#674500;stroke-width:0.587806"
         d="m 273.00378,350.5997 -1.41992,0.38086 -5.59179,1.5 -0.91993,4.11523 5.3711,20.03906 -4.54102,3.75196 v 12.0664 l 0.47656,0.43555 c 3.01267,2.76355 6.01373,5.54349 9.01758,8.32422 l 0.42383,0.39258 h 4.17969 v -2.93946 h -3.0293 c -2.70395,-2.50321 -5.4117,-5.0069 -8.12891,-7.50195 v -9.39258 l 4.92969,-4.07226 -5.67187,-21.16797 0.37304,-1.67383 2.45313,-0.65625 6.54883,24.43555 h 2.52539 v -2.93946 h -0.27149 z" />
      <path
         id="path532"
         style="color:#000000;fill:#674500;stroke-width:0.587807;-inkscape-stroke:none"
         d="m 274.12488,307.15438 -0.37891,0.89256 -1.2832,3.01172 -4.90039,-0.29297 -3.45899,6.72266 -4.07812,3.17383 1.03906,5.99608 -1.08203,2.75586 1.16406,5.39652 h 18.85352 v -2.93947 h -16.48047 l -0.47656,-2.21093 1.05859,-2.69141 -0.87891,-5.0703 3.19727,-2.48829 2.87891,-5.59572 5.05664,0.30276 1.71289,-4.02539 h 3.93164 v -2.9375 z" />
      <path
         id="path546"
         style="color:#000000;fill:#674500;stroke-width:0.587807"
         d="m 279.99988,238.39462 -4.23828,0.0957 -2.18946,2.4336 v 6.2207 l -1.77734,-3.32031 -6.20313,1.10742 -1.15039,3.53125 1.67383,9.86719 -2.32226,-1.27149 -3.1875,1.29297 -1.2461,2.73633 3.5,10 v 11.12109 l 9.91797,9.15625 h 7.22266 v -2.93945 h -6.07227 l -8.1289,-7.50195 v -10.33594 l -3.27539,-9.35742 0.27148,-0.59375 0.81055,-0.33008 0.88672,0.48437 3.24804,6.77149 2.77344,-0.88086 -3.05273,-17.99609 0.38085,-1.16993 2.36915,-0.42187 0.62109,1.16211 2.75391,18.88281 2.92382,-0.21094 v -24.875 l 0.58789,-0.65429 2.69532,-0.0606 0.16211,0.17773 v 25.41211 l 0.0449,0.006 z" />
      <path
         style="color:#000000;fill:#674500;stroke-width:0.587807;-inkscape-stroke:none"
         d="m 124.12479,226.50555 -0.38,0.89434 -1.28239,3.01136 -4.90107,-0.29275 -3.4591,6.72188 -4.07675,3.17439 1.03785,5.99632 -1.08147,2.75419 1.16413,5.39703 h 37.49677 l 0.36967,-1.08377 1.00455,-4.58994 -2.19968,-5.48773 -0.55451,-6.62086 -6.1869,-6.49802 -4.56583,1.11477 -2.07684,-4.49121 z m 1.94367,2.93903 h 6.48538 l 2.30417,4.98029 5.2627,-1.28468 4.29948,4.51646 0.5063,6.02846 2.02632,5.05721 -0.54303,2.48095 h -32.89076 l -0.4776,-2.21001 1.05852,-2.6922 -0.87827,-5.06983 3.19734,-2.489 2.87934,-5.59564 5.0572,0.30194 z"
         id="path499" />
      <path
         style="color:#000000;fill:#674500;stroke-width:0.587807;-inkscape-stroke:none"
         d="m 124.1248,385.83788 -0.37999,0.89434 -1.2824,3.01136 -4.90107,-0.29275 -3.4591,6.72188 -4.07676,3.17439 1.03785,5.99632 -1.08147,2.75419 1.16413,5.39703 h 37.49677 l 0.36969,-1.08377 1.00453,-4.58994 -2.19968,-5.48773 -0.55449,-6.62086 -6.18692,-6.49802 -4.56582,1.11477 -2.07685,-4.49121 z m 1.94367,2.93903 h 6.48539 l 2.30416,4.98029 5.2627,-1.28468 4.29948,4.51646 0.5063,6.02846 2.02632,5.05721 -0.54303,2.48095 h -32.89075 l -0.4776,-2.21001 1.05852,-2.6922 -0.87827,-5.06983 3.19734,-2.489 2.87934,-5.59564 5.0572,0.30194 z"
         id="path505" />
      <path
         style="color:#000000;fill:#674500;stroke-width:0.587807"
         d="m 123.00315,263.38737 -1.41901,0.38115 -5.59334,1.49937 -0.91845,4.11579 5.37062,20.03938 -4.54057,3.75186 v 12.06496 l 0.47643,0.43626 c 3.01267,2.76355 6.01301,5.54385 9.01686,8.32458 l 0.42364,0.39149 h 8.44053 l 9.91924,-9.15463 v -12.06266 l -4.53943,-3.75186 5.28682,-19.73055 -0.60503,-4.36263 -7.24311,-1.94251 -6.72534,25.09772 h -0.62455 z m -2.07799,3.60031 6.54853,24.43645 h 5.13412 l 6.54853,-24.43645 2.52114,0.67621 0.25601,1.84378 -5.62089,20.97849 4.92747,4.07217 v 9.39228 l -8.12827,7.50256 h -6.14211 c -2.70397,-2.50322 -5.41104,-5.00751 -8.12826,-7.50256 v -9.39228 l 4.92862,-4.07217 -5.67142,-21.16677 0.37312,-1.67387 z"
         id="path540" />
      <path
         style="color:#000000;fill:#674500;stroke-width:0.587807"
         d="m 131.05736,323.61728 -0.66588,0.0149 -4.63126,0.10561 -2.18936,2.43505 v 6.22018 l -1.77604,-3.32019 -6.20297,1.10672 -1.1515,3.53143 1.67387,9.86644 -2.32139,-1.26976 -3.18815,1.29271 -1.2468,2.73468 3.50159,10.00189 v 11.12012 l 9.91809,9.15576 h 8.43937 l 9.40262,-8.67818 8.78036,-6.86768 1.24105,-2.48096 -2.19967,-4.17664 -2.99414,-0.52123 -6.85162,4.19158 -0.0494,-0.0459 6.64611,-23.31822 -0.93682,-3.36841 -4.83104,-1.90004 -3.27884,1.73702 -3.25247,10.91345 v -16.4781 z m -1.26517,2.96888 0.16188,0.17679 v 25.41231 l 2.87819,0.41904 5.77703,-19.38958 0.99652,-0.5281 2.21118,0.87023 0.32146,1.15954 -6.90558,24.23208 2.97232,2.82424 7.82977,-4.78857 0.47989,0.0827 0.82201,1.56366 -0.2698,0.53959 -8.35327,6.53359 -8.64489,7.98016 h -6.14212 l -8.12827,-7.50256 v -10.33484 l -3.27541,-9.35782 0.27094,-0.59356 0.81168,-0.32948 0.8863,0.48447 3.24671,6.77012 2.77371,-0.88057 -3.05269,-17.99583 0.38116,-1.16988 2.3696,-0.42247 0.6211,1.16297 2.75419,18.88328 2.92411,-0.21239 v -24.87501 l 0.58665,-0.65324 z"
         id="path560" />
      <path
         id="path584"
         style="color:#000000;fill:#674500;stroke-width:0.587807"
         d="m 222.96322,403.1582 -1.41993,0.38086 -5.59179,1.49805 -0.91993,4.11719 2.90625,10.8457 h 3.04493 l -2.92383,-10.91016 0.37305,-1.67382 2.45312,-0.65821 L 224.43394,420 h 3.04101 z m 14.07421,0 L 232.52572,420 h 3.04101 l 3.54883,-13.24219 2.52148,0.67578 0.25587,1.84375 L 239.01987,420 h 3.04295 l 2.82422,-10.53711 -0.60547,-4.36328 z" />
      <path
         style="color:#000000;fill:#674500;stroke-width:0.587807;-inkscape-stroke:none"
         d="m 224.1257,264.33391 -0.38,0.89434 -1.28239,3.01136 -4.90107,-0.29275 -3.4591,6.72188 -4.07675,3.17439 1.03785,5.99632 -1.08147,2.75419 1.16413,5.39703 h 37.49677 l 0.36968,-1.08377 1.00454,-4.58994 -2.19968,-5.48773 -0.55451,-6.62086 -6.1869,-6.49802 -4.56583,1.11477 -2.07684,-4.49121 z m 1.94367,2.93903 h 6.48538 l 2.30417,4.98029 5.2627,-1.28468 4.29948,4.51646 0.5063,6.02846 2.02632,5.05721 -0.54303,2.48095 h -32.89076 l -0.4776,-2.21001 1.05853,-2.6922 -0.87828,-5.06983 3.19734,-2.489 2.87934,-5.59564 5.05721,0.30194 z"
         id="path593" />
      <path
         style="color:#000000;fill:#674500;stroke-width:0.587807"
         d="m 231.05827,302.16248 -0.66588,0.0149 -4.63127,0.10561 -2.18935,2.43505 v 6.22018 l -1.77605,-3.32019 -6.20295,1.10672 -1.1515,3.53143 1.67385,9.86644 -2.32138,-1.26976 -3.18816,1.29271 -1.24679,2.73468 3.50158,10.00189 v 11.12012 l 9.91809,9.15576 h 8.43938 l 9.40261,-8.67818 8.78037,-6.86768 1.24104,-2.48096 -2.19966,-4.17664 -2.99413,-0.52123 -6.85162,4.19158 -0.0494,-0.0459 6.64611,-23.31822 -0.93683,-3.36841 -4.83104,-1.90004 -3.27884,1.73702 -3.25246,10.91345 v -16.4781 z m -1.26517,2.96888 0.16188,0.17679 v 25.41231 l 2.87819,0.41904 5.77703,-19.38958 0.99652,-0.5281 2.21117,0.87023 0.32146,1.15954 -6.90558,24.23208 2.97232,2.82424 7.82977,-4.78857 0.47989,0.0827 0.82201,1.56366 -0.2698,0.53959 -8.35327,6.53359 -8.64489,7.98016 h -6.14212 l -8.12827,-7.50256 v -10.33484 l -3.27541,-9.35782 0.27094,-0.59356 0.81168,-0.32948 0.8863,0.48447 3.24671,6.77012 2.77371,-0.88057 -3.05269,-17.99583 0.38116,-1.16988 2.3696,-0.42247 0.6211,1.16297 2.75419,18.88328 2.92411,-0.21239 v -24.87501 l 0.58665,-0.65324 z"
         id="path595" />
      <path
         style="color:#000000;fill:#674500;stroke-width:0.587807;-inkscape-stroke:none"
         d="m 224.1257,365.32983 -0.38,0.89434 -1.28239,3.01136 -4.90107,-0.29275 -3.4591,6.72188 -4.07675,3.17439 1.03785,5.99632 -1.08147,2.75419 1.16413,5.39703 h 37.49677 l 0.36968,-1.08377 1.00454,-4.58994 -2.19968,-5.48773 -0.55451,-6.62086 -6.1869,-6.49802 -4.56583,1.11477 -2.07684,-4.49121 z m 1.94367,2.93903 h 6.48538 l 2.30417,4.98029 5.2627,-1.28468 4.29948,4.51646 0.5063,6.02846 2.02632,5.05721 -0.54303,2.48095 h -32.89076 l -0.4776,-2.21001 1.05853,-2.6922 -0.87828,-5.06983 3.19734,-2.489 2.87934,-5.59564 5.05721,0.30194 z"
         id="path597" />
      <path
         id="path599"
         style="color:#000000;fill:#674500;stroke-width:0.587807"
         d="m 160.60535,219.99999 2.2539,6.44141 v 11.11914 l 9.91797,9.15625 h 8.43945 l 9.4043,-8.67774 8.7793,-6.86719 1.24023,-2.48242 -2.19922,-4.17578 -2.99414,-0.52148 -6.85156,4.1914 -0.0488,-0.0449 2.32032,-8.13867 h -3.05665 l -2.57617,9.04297 2.97071,2.82422 7.83007,-4.78907 0.48047,0.082 0.82227,1.56445 -0.26953,0.53906 -8.35352,6.5332 -8.64453,7.98047 h -6.14258 l -8.1289,-7.50195 V 225.9414 l -2.08008,-5.94141 z m 5.73632,0 1.39844,2.91406 2.77344,-0.88086 -0.3457,-2.0332 z m 6.88086,0 0.36329,2.49219 2.92382,-0.21289 v -2.2793 z m 6.73243,0 v 2.2793 l 2.87695,0.41992 0.80469,-2.69922 z" />
      <path
         id="path603"
         style="color:#000000;fill:#674500;stroke-width:0.587807"
         d="m 181.05847,393.72073 -0.66601,0.0156 -4.63086,0.10547 -2.18946,2.43554 v 6.22071 l -1.77734,-3.32032 -6.20313,1.10547 -1.15039,3.53125 1.67383,9.86719 -2.32226,-1.26953 -3.1875,1.29297 -1.2461,2.73437 1.2461,3.56055 h 3.11328 l -1.19531,-3.41797 0.27148,-0.59375 0.81055,-0.32812 0.88672,0.48437 1.8496,3.85547 h 3.82618 l -2.70703,-15.96289 0.38085,-1.16992 2.36915,-0.42188 0.62109,1.16406 L 173.22253,420 h 3.28711 v -22.5957 l 0.58789,-0.65235 2.69532,-0.0625 0.16211,0.17774 V 420 h 3.68164 l 4.97265,-16.69141 0.9961,-0.52734 2.21289,0.86914 0.32031,1.16016 L 187.81042,420 h 3.05665 l 4.32617,-15.17969 -0.9375,-3.36914 -4.83008,-1.90039 -3.2793,1.73828 -3.25195,10.91211 v -16.47851 z" />
      <path
         style="color:#000000;fill:#674500;stroke-width:0.587807"
         d="m 173.62666,338.87932 -1.41901,0.38115 -5.59335,1.49937 -0.91845,4.11579 5.37062,20.03938 -4.54057,3.75186 v 12.06496 l 0.47643,0.43626 c 3.01267,2.76355 6.01301,5.54385 9.01686,8.32458 l 0.42364,0.39149 h 8.44053 l 9.91924,-9.15463 v -12.06266 l -4.53943,-3.75186 5.28682,-19.73055 -0.60503,-4.36263 -7.24311,-1.94251 -6.72534,25.09772 h -0.62455 z m -2.07799,3.60031 6.54853,24.43645 h 5.13412 l 6.54853,-24.43645 2.52114,0.67621 0.25601,1.84378 -5.62089,20.97849 4.92747,4.07217 v 9.39228 l -8.12827,7.50256 h -6.14211 c -2.70397,-2.50322 -5.41104,-5.00751 -8.12826,-7.50256 v -9.39228 l 4.92862,-4.07217 -5.67143,-21.16677 0.37312,-1.67387 z"
         id="path610" />
      <path
         style="color:#000000;fill:#674500;stroke-width:0.587807;-inkscape-stroke:none"
         d="m 174.74831,307.38581 -0.37999,0.89434 -1.2824,3.01136 -4.90107,-0.29275 -3.4591,6.72188 -4.07677,3.17439 1.03785,5.99632 -1.08147,2.75419 1.16413,5.39703 h 37.49677 l 0.36969,-1.08377 1.00453,-4.58994 -2.19968,-5.48773 -0.55449,-6.62086 -6.18692,-6.49802 -4.56582,1.11477 -2.07685,-4.49121 z m 1.94367,2.93903 h 6.48538 l 2.30416,4.98029 5.2627,-1.28468 4.29948,4.51647 0.5063,6.02846 2.02632,5.05721 -0.54303,2.48095 h -32.89075 l -0.47759,-2.21001 1.05851,-2.69221 -0.87826,-5.06983 3.19734,-2.48899 2.87934,-5.59564 5.0572,0.30193 z"
         id="path612" />
      <path
         style="color:#000000;fill:#674500;stroke-width:0.587807"
         d="m 181.68086,250.55353 -0.66588,0.0149 -4.63126,0.10561 -2.18936,2.43505 v 6.22018 l -1.77604,-3.32019 -6.20296,1.10672 -1.1515,3.53143 1.67386,9.86644 -2.32139,-1.26976 -3.18815,1.29271 -1.2468,2.73468 3.50159,10.00189 v 11.12012 l 9.91809,9.15576 h 8.43937 l 9.40262,-8.67818 8.78036,-6.86768 1.24105,-2.48096 -2.19967,-4.17664 -2.99413,-0.52123 -6.85162,4.19158 -0.0494,-0.0459 6.64611,-23.31822 -0.93683,-3.36841 -4.83104,-1.90004 -3.27884,1.73702 -3.25246,10.91345 v -16.4781 z m -1.26517,2.96888 0.16188,0.17679 v 25.41231 l 2.87819,0.41904 5.77703,-19.38958 0.99652,-0.5281 2.21118,0.87023 0.32146,1.15954 -6.90558,24.23208 2.97232,2.82424 7.82977,-4.78857 0.47989,0.0827 0.82201,1.56366 -0.2698,0.53959 -8.35327,6.53359 -8.64489,7.98016 h -6.14212 l -8.12827,-7.50256 v -10.33484 l -3.27541,-9.35782 0.27094,-0.59356 0.81168,-0.32948 0.8863,0.48447 3.24671,6.77012 2.77371,-0.88057 -3.05269,-17.99583 0.38116,-1.16988 2.3696,-0.42247 0.6211,1.16297 2.75419,18.88328 2.92411,-0.21239 v -24.87501 l 0.58665,-0.65324 z"
         id="path614" />
      <path
         id="path1593"
         style="color:#000000;fill:#674500;stroke-width:0.587807;-inkscape-stroke:none"
         d="m 266.66199,406.17187 -0.38086,0.89453 -1.28125,3.01172 -4.90235,-0.29297 -3.45898,6.7207 -4.07617,3.17578 0.0547,0.31836 h 4.31835 l 2.01954,-1.57227 2.88086,-5.5957 5.05664,0.30274 1.71289,-4.02344 h 6.48437 l 2.30469,4.98047 2.60547,-0.63672 v -3.02539 l -0.95313,0.23242 -2.07617,-4.49023 z" />
      <path
         id="path1771"
         style="color:#000000;fill:#674500;stroke-width:0.587807;-inkscape-stroke:none"
         d="m 252.61707,219.99998 0.98242,5.67773 -1.08008,2.75391 1.16406,5.39649 h 26.31641 v -2.93946 h -23.94336 l -0.47852,-2.20898 1.0586,-2.69141 -0.87891,-5.07031 1.17773,-0.91797 z" />
      <path
         id="path1776"
         style="color:#000000;fill:#674500;stroke-width:0.587807;-inkscape-stroke:none"
         d="m 83.613158,409.54882 -3.61328,0.88086 v 3.02539 l 2.6582,-0.64844 4.29883,4.51563 0.22461,2.67773 h 2.94922 l -0.33203,-3.95312 z" />
      <path
         id="path1782"
         style="color:#000000;fill:#674500;stroke-width:0.587807;-inkscape-stroke:none"
         d="m 87.181518,219.99998 0.28125,3.35156 2.02734,5.05664 -0.54297,2.48047 h -8.94726 v 2.93946 h 11.17969 l 0.36914,-1.08399 1.0039,-4.58984 -2.19922,-5.48633 -0.22265,-2.66797 z" />
    </g>
  </g>
</svg>
